<?xml version="1.0" standalone="no"?>
<!DOCTYPE svg PUBLIC "-//W3C//DTD SVG 20010904//EN"
 "http://www.w3.org/TR/2001/REC-SVG-20010904/DTD/svg10.dtd">
<svg version="1.0" xmlns="http://www.w3.org/2000/svg"
 width="500.000000pt" height="500.000000pt" viewBox="0 0 500.000000 500.000000"
 preserveAspectRatio="xMidYMid meet">

<g transform="translate(0.000000,500.000000) scale(0.100000,-0.100000)"
fill="#000000" stroke="none">
<path d="M0 2500 l0 -2500 2500 0 2500 0 0 2500 0 2500 -2500 0 -2500 0 0
-2500z m1300 1251 c0 -5 13 -11 29 -13 18 -3 29 0 28 6 -3 14 220 21 237 7 6
-5 25 -12 42 -15 24 -5 33 -3 38 9 5 13 25 15 137 13 95 -2 134 -7 137 -15 2
-7 -3 -13 -12 -13 -9 0 -16 -7 -16 -15 0 -11 -14 -15 -57 -17 -43 -1 -48 -2
-20 -5 44 -5 50 -23 7 -23 -23 0 -30 -5 -30 -19 0 -10 7 -21 15 -25 8 -3 15
-12 15 -21 0 -8 -7 -15 -15 -15 -8 0 -15 -7 -15 -15 0 -8 7 -15 15 -15 8 0 15
-4 15 -10 0 -5 -7 -10 -15 -10 -8 0 -15 -4 -15 -10 0 -5 6 -10 14 -10 9 0 13
-12 12 -40 -1 -37 -3 -40 -28 -40 -16 0 -28 5 -28 10 0 6 -7 10 -15 10 -18 0
-20 26 -2 34 9 3 7 8 -5 16 -13 8 -15 19 -11 48 3 20 11 40 17 45 7 5 5 11 -7
18 -11 6 -17 20 -15 32 4 36 -10 47 -63 47 -37 0 -49 4 -49 15 0 8 -9 15 -20
15 -22 0 -27 -16 -7 -23 6 -3 -99 -5 -234 -5 -162 1 -252 -3 -265 -10 -17 -10
-16 -11 9 -12 34 0 32 -23 -1 -28 -29 -4 -32 -52 -3 -52 14 0 17 -6 13 -25 -3
-16 -11 -25 -23 -25 -11 0 -19 -4 -19 -10 0 -5 11 -10 24 -10 13 0 26 -7 30
-15 4 -11 22 -15 76 -15 38 0 70 4 70 9 0 5 -24 8 -52 7 -29 -2 -38 -2 -20 1
18 2 30 9 26 14 -3 6 3 13 15 16 38 10 22 23 -29 23 -27 0 -50 5 -50 10 0 6
-7 10 -15 10 -8 0 -15 9 -15 20 0 18 7 20 80 20 64 0 80 -3 80 -15 0 -8 8 -15
19 -15 14 0 17 -6 13 -25 -3 -16 -11 -25 -23 -25 -11 0 -19 -4 -19 -10 0 -5
11 -10 25 -10 26 0 29 -9 19 -47 -4 -13 -14 -23 -25 -23 -10 0 -21 -4 -24 -10
-3 -6 -52 -10 -110 -10 -58 0 -107 4 -110 10 -3 6 2 10 11 10 25 0 5 17 -26
23 -25 4 -25 4 2 6 35 1 27 31 -8 31 -15 0 -24 6 -24 15 0 9 9 15 21 15 29 0
21 32 -11 41 -14 4 -19 7 -12 8 7 1 12 14 12 31 0 17 5 30 10 30 6 0 10 5 10
10 0 6 -7 10 -16 10 -9 0 -14 7 -12 18 2 11 14 18 38 20 45 4 64 22 25 23 -26
0 -27 2 -10 9 27 11 215 12 215 1z m928 -15 c12 -14 14 -20 5 -23 -20 -7 -15
-23 7 -23 11 0 20 -7 20 -15 0 -8 -9 -15 -20 -15 -11 0 -20 -4 -20 -10 0 -5 9
-10 20 -10 11 0 20 -4 20 -10 0 -5 -9 -10 -20 -10 -10 0 -24 -9 -30 -20 -8
-14 -8 -20 0 -20 6 0 4 -7 -4 -16 -18 -18 -18 -17 -10 -38 3 -9 16 -16 28 -17
11 0 15 -3 9 -6 -18 -7 -16 -20 7 -43 l20 -20 -35 0 c-49 0 -97 49 -62 63 6 3
2 6 -10 6 -22 1 -40 32 -28 51 10 16 -64 12 -81 -4 -25 -25 -17 -46 19 -48
l32 -1 -34 -4 c-30 -4 -33 -7 -29 -34 4 -28 3 -30 -26 -27 -24 2 -32 8 -34 27
-2 13 2 28 10 32 10 7 10 9 1 9 -7 0 -13 11 -13 25 0 14 5 25 10 25 6 0 10 5
10 10 0 6 -7 10 -15 10 -9 0 -15 9 -15 25 0 25 0 25 94 25 74 0 95 3 100 15 3
8 15 15 27 15 30 0 18 24 -17 31 -16 4 -68 7 -116 8 -51 1 -88 5 -88 11 0 6 7
10 15 10 8 0 15 5 15 10 0 6 -7 10 -16 10 -9 0 -12 5 -8 11 4 8 44 10 126 7
98 -3 121 -7 136 -22z m145 12 c31 -15 36 -38 7 -38 -13 0 -20 -7 -20 -20 0
-11 7 -20 15 -20 21 0 19 -28 -2 -33 -10 -3 14 -5 52 -6 44 0 76 5 88 13 15
12 16 14 2 20 -8 3 -15 12 -15 20 0 9 -12 16 -32 19 -23 3 -16 4 20 5 28 1 52
7 52 12 0 6 -7 10 -15 10 -8 0 -15 7 -15 15 0 18 32 20 61 3 17 -10 23 -10 26
0 6 14 49 16 58 2 3 -5 15 -10 25 -10 24 0 37 -20 20 -30 -17 -10 -4 -30 21
-30 10 0 19 -4 19 -10 0 -5 -7 -10 -15 -10 -12 0 -13 -4 -3 -25 6 -14 15 -25
20 -25 5 0 14 11 20 25 6 14 19 25 29 25 10 0 21 5 24 10 3 6 -1 10 -9 10 -23
0 -8 28 17 32 25 4 36 28 12 28 -9 0 -13 5 -10 10 8 14 35 13 68 -2 31 -15 30
-32 0 -36 -25 -4 -40 -32 -17 -32 8 0 12 -4 9 -10 -3 -5 -15 -10 -25 -10 -11
0 -24 -9 -30 -19 -14 -26 -13 -31 6 -31 24 0 11 -23 -17 -31 -15 -4 -18 -7 -7
-8 24 -1 11 -31 -13 -31 -12 0 -19 -7 -19 -20 0 -11 4 -20 10 -20 5 0 8 -13 7
-30 -2 -32 -6 -34 -56 -24 -31 7 -43 24 -16 24 8 0 15 7 15 15 0 8 -4 15 -10
15 -5 0 -10 9 -10 20 0 12 7 20 16 20 14 0 14 3 4 15 -7 8 -21 15 -31 15 -11
0 -19 5 -19 10 0 6 7 10 16 10 8 0 12 5 9 10 -3 6 -15 10 -25 10 -23 0 -50 42
-31 48 19 6 12 20 -11 24 -26 4 -37 28 -13 28 14 0 15 3 5 15 -7 8 -19 15 -26
15 -8 0 -14 -7 -14 -15 0 -8 -9 -15 -20 -15 -24 0 -26 -13 -5 -34 8 -8 15 -19
15 -25 0 -6 -7 -11 -15 -11 -8 0 -15 -7 -15 -15 0 -9 9 -15 21 -15 18 0 19 -3
9 -15 -8 -9 -10 -28 -5 -54 5 -32 3 -41 -12 -51 -13 -8 -14 -13 -5 -16 6 -3
12 -12 12 -20 0 -21 -43 -17 -63 6 -21 25 -22 50 -2 50 8 0 15 5 15 10 0 6 -4
10 -10 10 -5 0 -10 9 -10 20 0 18 -7 20 -75 20 -60 0 -75 -3 -75 -15 0 -8 7
-15 15 -15 8 0 15 -7 15 -15 0 -10 10 -15 30 -15 17 0 30 -4 30 -10 0 -5 -20
-10 -45 -10 -25 0 -45 -4 -45 -10 0 -5 5 -10 10 -10 6 0 10 -7 10 -15 0 -10
-10 -15 -30 -15 -20 0 -30 5 -30 15 0 8 -7 15 -15 15 -21 0 -19 17 5 30 24 13
26 30 5 30 -12 0 -15 13 -15 60 0 50 3 60 18 60 16 1 16 1 0 11 -10 5 -18 16
-18 24 0 7 -6 16 -12 18 -7 3 -1 6 14 6 28 1 51 21 24 21 -9 0 -16 7 -16 15 0
18 27 19 63 3z m865 -5 c2 -7 -3 -13 -12 -13 -9 0 -16 -7 -16 -15 0 -11 -14
-15 -57 -17 -51 -1 -53 -2 -15 -5 47 -5 48 -23 1 -23 -22 0 -29 -5 -29 -20 0
-11 7 -20 15 -20 8 0 15 -9 15 -20 0 -11 -4 -20 -10 -20 -5 0 -10 -7 -10 -15
0 -8 5 -15 10 -15 6 0 10 -4 10 -10 0 -5 -7 -10 -15 -10 -8 0 -15 -4 -15 -10
0 -5 6 -10 14 -10 19 0 29 -17 19 -32 -4 -7 -6 -21 -5 -30 4 -22 -22 -24 -61
-5 -28 13 -35 32 -14 40 9 4 9 7 0 14 -14 10 -14 73 0 91 8 10 7 16 0 20 -6 4
-13 23 -15 42 l-3 35 -57 3 c-43 2 -58 7 -58 17 0 8 6 15 14 15 8 0 17 7 20
15 5 13 27 15 137 13 95 -2 134 -7 137 -15z m105 5 c29 -14 37 -38 12 -38 -8
0 -15 -9 -15 -20 0 -11 7 -20 15 -20 20 0 19 -17 -2 -29 -14 -8 0 -10 55 -11
41 0 72 4 72 10 0 6 8 11 18 11 16 1 16 2 0 6 -10 2 -18 13 -18 23 0 14 -9 20
-37 23 -31 3 -29 4 15 5 28 1 52 7 52 12 0 6 -7 10 -15 10 -19 0 -19 19 0 26
16 6 75 -16 75 -28 0 -5 9 -8 20 -8 11 0 20 5 20 10 0 6 -5 10 -11 10 -5 0 -7
5 -4 10 8 14 48 13 82 -2 37 -16 46 -31 25 -40 -13 -5 -12 -7 7 -7 20 -1 22
-5 17 -26 -7 -29 8 -65 28 -65 8 0 17 -12 21 -27 6 -27 7 -27 21 -9 10 15 11
22 2 27 -15 10 9 69 28 69 8 0 14 5 14 10 0 6 -4 10 -10 10 -18 0 -10 22 10
27 21 6 28 23 9 23 -5 0 -7 5 -4 10 8 13 41 13 82 -2 35 -13 45 -37 16 -39
-17 -1 -17 -2 0 -6 18 -5 24 -33 7 -33 -5 0 -10 -13 -10 -30 0 -24 4 -30 21
-30 16 0 19 -4 13 -22 -3 -13 -11 -29 -16 -35 -7 -9 -7 -17 0 -26 12 -14 6
-53 -11 -74 -5 -7 -20 -13 -34 -13 -19 0 -23 4 -19 18 6 17 -1 19 -76 18 -67
-1 -83 2 -84 14 -2 35 -5 40 -20 40 -12 0 -15 6 -10 26 5 19 1 31 -16 48 -13
12 -28 31 -35 42 -11 18 -12 17 -12 -8 -1 -19 4 -28 15 -28 13 0 15 -6 9 -27
-3 -16 -11 -29 -16 -31 -13 -5 -11 -22 4 -22 6 0 17 -11 24 -25 9 -20 8 -25
-3 -25 -8 0 -14 -4 -14 -8 0 -4 15 -7 33 -6 25 1 26 0 5 -3 -16 -2 -28 -8 -28
-14 0 -14 -54 -11 -76 5 -16 13 -17 18 -6 35 14 24 16 61 3 61 -16 0 -12 110
5 117 23 9 16 23 -11 23 -14 0 -25 5 -25 10 0 6 -4 10 -10 10 -5 0 -10 -9 -10
-20 0 -11 7 -20 15 -20 8 0 15 -7 15 -15 0 -8 -7 -15 -15 -15 -8 0 -15 -7 -15
-15 0 -8 7 -15 15 -15 8 0 15 -4 15 -10 0 -5 -5 -10 -11 -10 -7 0 -9 -16 -4
-50 6 -42 4 -50 -9 -50 -9 0 -16 -4 -16 -10 0 -5 7 -10 15 -10 8 0 15 -7 15
-15 0 -10 -10 -15 -30 -15 -20 0 -30 5 -30 15 0 8 -7 15 -15 15 -19 0 -19 27
0 37 13 7 13 13 3 36 -13 27 -15 27 -82 25 -45 -2 -71 -7 -74 -15 -2 -7 3 -13
11 -13 8 0 17 -7 21 -15 3 -9 18 -15 36 -15 18 0 29 -4 25 -10 -3 -5 -26 -10
-51 -10 -24 0 -44 -4 -44 -10 0 -5 7 -10 15 -10 8 0 15 -7 15 -15 0 -10 -10
-15 -30 -15 -20 0 -30 5 -30 15 0 8 -7 15 -15 15 -8 0 -15 6 -15 14 0 8 7 16
15 20 19 7 19 26 0 26 -22 0 -19 107 4 120 10 6 11 10 4 10 -7 0 -13 9 -13 19
0 11 -6 22 -12 24 -7 3 -1 6 15 6 27 1 39 21 12 21 -16 0 -20 12 -8 23 10 10
26 9 56 -5z m-553 -8 c0 -5 -13 -10 -30 -10 -16 0 -30 5 -30 10 0 6 14 10 30
10 17 0 30 -4 30 -10z m1013 -27 c-7 -2 -21 -2 -30 0 -10 3 -4 5 12 5 17 0 24
-2 18 -5z m-1050 -20 c-7 -2 -19 -2 -25 0 -7 3 -2 5 12 5 14 0 19 -2 13 -5z
m-665 -10 c-10 -2 -28 -2 -40 0 -13 2 -5 4 17 4 22 1 32 -1 23 -4z m380 0
c-15 -2 -42 -2 -60 0 -18 2 -6 4 27 4 33 0 48 -2 33 -4z m970 0 c-16 -2 -40
-2 -55 0 -16 2 -3 4 27 4 30 0 43 -2 28 -4z m-1885 -10 c-18 -2 -48 -2 -65 0
-18 2 -4 4 32 4 36 0 50 -2 33 -4z m175 0 c-10 -2 -28 -2 -40 0 -13 2 -5 4 17
4 22 1 32 -1 23 -4z m1290 0 c-10 -2 -28 -2 -40 0 -13 2 -5 4 17 4 22 1 32 -1
23 -4z m-1741 -20 c-20 -2 -52 -2 -70 0 -17 2 0 4 38 4 39 0 53 -2 32 -4z
m611 0 c-10 -2 -26 -2 -35 0 -10 3 -2 5 17 5 19 0 27 -2 18 -5z m1290 0 c-10
-2 -26 -2 -35 0 -10 3 -2 5 17 5 19 0 27 -2 18 -5z m-1685 -10 c-18 -2 -48 -2
-65 0 -18 2 -4 4 32 4 36 0 50 -2 33 -4z m560 0 c-13 -2 -33 -2 -45 0 -13 2
-3 4 22 4 25 0 35 -2 23 -4z m-430 -27 c12 -9 14 -16 7 -21 -5 -3 -8 -11 -5
-16 4 -5 -31 -10 -82 -11 l-88 -1 65 -7 65 -7 -72 -1 c-40 -1 -73 -5 -73 -9 0
-17 58 -33 117 -33 56 0 63 -2 63 -20 0 -12 7 -20 18 -21 16 -1 16 -2 0 -6
-10 -2 -18 -9 -18 -14 0 -5 -44 -9 -97 -9 -93 0 -98 1 -120 27 -27 30 -29 43
-8 43 8 0 15 5 15 10 0 6 -7 10 -15 10 -21 0 -19 20 3 21 16 1 16 2 0 6 -20 5
-23 25 -8 54 10 17 22 19 113 19 71 -1 108 -5 120 -14z m-425 -63 c-10 -2 -28
-2 -40 0 -13 2 -5 4 17 4 22 1 32 -1 23 -4z m1505 0 c-7 -2 -19 -2 -25 0 -7 3
-2 5 12 5 14 0 19 -2 13 -5z m-235 -10 c-10 -2 -28 -2 -40 0 -13 2 -5 4 17 4
22 1 32 -1 23 -4z m975 0 c-13 -2 -33 -2 -45 0 -13 2 -3 4 22 4 25 0 35 -2 23
-4z m-1860 -20 c-13 -2 -33 -2 -45 0 -13 2 -3 4 22 4 25 0 35 -2 23 -4z m1250
0 c-7 -2 -19 -2 -25 0 -7 3 -2 5 12 5 14 0 19 -2 13 -5z m-725 -50 c-10 -2
-28 -2 -40 0 -13 2 -5 4 17 4 22 1 32 -1 23 -4z m340 -20 c-10 -2 -26 -2 -35
0 -10 3 -2 5 17 5 19 0 27 -2 18 -5z m975 0 c-7 -2 -21 -2 -30 0 -10 3 -4 5
12 5 17 0 24 -2 18 -5z m-1511 -279 c49 -21 98 -35 120 -35 30 1 41 -5 54 -24
15 -23 15 -27 0 -50 -21 -31 -61 -33 -78 -4 -13 21 -86 59 -113 59 -19 0 259
-600 290 -625 42 -35 28 -95 -21 -95 -31 0 -55 27 -52 59 1 18 -54 149 -155
368 -86 186 -157 346 -157 355 0 16 9 28 21 28 4 0 45 -16 91 -36z m1291 22
c3 -8 -8 -42 -24 -76 -16 -34 -29 -77 -29 -96 0 -56 -65 -72 -91 -22 -13 24 2
68 24 68 12 0 43 48 35 55 -2 1 -136 -55 -298 -126 -162 -71 -304 -128 -315
-128 -11 0 -31 6 -45 14 -14 8 -39 14 -57 15 -33 0 -63 22 -63 46 0 19 36 54
56 54 8 0 27 -13 42 -29 55 -58 38 -62 397 94 182 79 337 144 346 144 9 1 19
-5 22 -13z m-262 -587 c11 -11 18 -27 15 -36 -3 -8 -6 -19 -6 -24 0 -5 -10
-13 -22 -18 -18 -6 -64 -97 -214 -422 -166 -360 -194 -414 -213 -414 -18 0
-33 25 -94 157 -41 89 -84 167 -100 182 -34 31 -35 61 -2 82 38 25 75 6 75
-38 0 -30 108 -288 120 -288 11 0 352 753 354 782 2 30 28 58 53 58 7 0 22 -9
34 -21z m-960 -1081 c18 -63 24 -64 38 -8 8 30 18 50 27 50 11 0 14 -16 12
-72 l-1 -73 -6 55 c-6 60 -13 58 -30 -7 -7 -24 -16 -43 -20 -43 -5 0 -15 24
-24 53 l-15 52 -1 -47 c-1 -26 -5 -50 -11 -53 -6 -4 -10 20 -10 64 0 56 3 71
15 71 8 0 19 -17 26 -42z m279 -18 c0 -57 1 -60 25 -60 24 0 25 3 25 60 0 35
4 60 10 60 7 0 10 -25 8 -67 l-3 -68 -40 0 -40 0 -3 68 c-2 42 1 67 8 67 6 0
10 -25 10 -60z m337 45 c9 -24 -5 -31 -20 -11 -17 23 -52 17 -52 -9 0 -15 8
-21 35 -25 32 -5 35 -8 35 -40 0 -34 -1 -35 -40 -35 -35 0 -40 3 -43 25 -2 22
-1 23 8 8 6 -10 22 -18 36 -18 21 0 25 4 22 23 -2 17 -11 23 -35 25 -29 3 -33
7 -33 31 0 36 6 41 47 41 21 0 36 -6 40 -15z m190 -92 c-2 -21 -4 -4 -4 37 0
41 2 58 4 38 2 -21 2 -55 0 -75z m270 92 c9 -24 -6 -31 -21 -10 -24 33 -46 12
-46 -45 0 -44 2 -50 21 -50 12 0 28 8 36 18 12 16 13 15 11 -8 -3 -22 -8 -25
-43 -25 l-40 0 -3 54 c-2 29 -1 60 2 67 8 20 75 18 83 -1z"/>
<path d="M3868 3640 c-4 -14 -4 -26 1 -28 14 -5 -12 -62 -27 -62 -9 0 -11 -7
-7 -20 4 -12 1 -28 -7 -37 -12 -15 -9 -15 27 -9 51 10 66 23 43 40 -22 16 -23
36 -3 36 19 0 20 36 1 43 -8 3 -16 18 -18 34 l-3 28 -7 -25z"/>
</g>
</svg>
